<svg xmlns="http://www.w3.org/2000/svg" viewBox="0 0 32 32">
  <path d="M16 2 C16 2 10 8 10 14 C10 11 13 9 13 9 C13 9 11 15 14 18 C14 15 16 13 16 13 C16 13 15 19 19 21 C20 18 20 15 18 12 C20 14 22 17 22 21 C23 19 24 16 22 13 C24 15 26 18 24 23 C22 27 19 30 16 30 C10 30 6 25 6 20 C6 14 10 9 16 2 Z" fill="#e65100"/>
  <path d="M16 14 C16 14 13 18 13 21 C13 23 14 25 16 26 C18 25 19 23 19 21 C19 18 16 14 16 14 Z" fill="#ff8f00"/>
  <path d="M16 20 C15 20 14 21 14 22 C14 24 15 25 16 25 C17 25 18 24 18 22 C18 21 17 20 16 20 Z" fill="#ffcc02"/>
</svg>
